<?xml version="1.0" encoding="UTF-8"?>
<svg width="357px" height="482px" viewBox="0 0 357 482" version="1.1" xmlns="http://www.w3.org/2000/svg" xmlns:xlink="http://www.w3.org/1999/xlink">
    <!-- Generator: Sketch 54 (76480) - https://sketchapp.com -->
    <title>Group 261</title>
    <desc>Created with Sketch.</desc>
    <defs>
        <polygon id="path-1" points="0.710565037 0.801850856 161.981785 0.801850856 161.981785 90.432834 0.710565037 90.432834"></polygon>
        <polygon id="path-3" points="0.513704156 2.30635452 38.2184083 24.0756015 40.5578289 22.7246186 2.85194377 0.956552567"></polygon>
        <linearGradient x1="0.000285175027%" y1="49.9979507%" x2="99.9993975%" y2="49.9979507%" id="linearGradient-5">
            <stop stop-color="#2172FF" offset="0%"></stop>
            <stop stop-color="#2D3FD1" offset="100%"></stop>
        </linearGradient>
        <polygon id="path-6" points="0.873976739 0.349084651 17.5805565 0.349084651 17.5805565 12.99022 0.873976739 12.99022"></polygon>
        <polygon id="path-8" points="0.63722934 0.722869433 13.9255159 0.722869433 13.9255159 15.2348234 0.63722934 15.2348234"></polygon>
        <path d="M6.88835941,2.27328851 L0.628254279,23.4662421 C0.186586797,24.9577555 1.04748411,26.5390196 2.54017848,26.980687 L2.54017848,26.980687 C4.03169193,27.4199927 5.61413692,26.5602763 6.05344254,25.0687628 L6.05344254,25.0687628 L12.3147286,3.87699022 C12.7552152,2.38429584 11.8954988,0.803031785 10.4028044,0.361364303 L10.4028044,0.361364303 C10.1382763,0.283422983 9.87138631,0.246814181 9.60803912,0.246814181 L9.60803912,0.246814181 C8.38577751,0.246814181 7.25090465,1.04630318 6.88835941,2.27328851" id="path-10"></path>
        <path d="M0.311765281,3.03853056 L0.311765281,25.1360758 C0.311765281,26.6913594 1.58598778,27.964401 3.14009046,27.964401 L3.14009046,27.964401 C4.69655501,27.964401 5.96959658,26.6913594 5.96959658,25.1360758 L5.96959658,25.1360758 L5.96959658,3.03853056 C5.96959658,1.48206601 4.69655501,0.210205379 3.14009046,0.210205379 L3.14009046,0.210205379 C1.58598778,0.210205379 0.311765281,1.48206601 0.311765281,3.03853056" id="path-12"></path>
        <path d="M0.954190709,10.8385672 C0.954190709,16.3310685 5.4062934,20.7831711 10.8999756,20.7831711 L10.8999756,20.7831711 C16.3912958,20.7831711 20.8445795,16.3310685 20.8445795,10.8385672 L20.8445795,10.8385672 C20.8445795,5.34606601 16.3912958,0.893963325 10.8999756,0.893963325 L10.8999756,0.893963325 C5.4062934,0.893963325 0.954190709,5.34606601 0.954190709,10.8385672" id="path-14"></path>
    </defs>
    <g id="Page-1" stroke="none" stroke-width="1" fill="none" fill-rule="evenodd">
        <g id="01_Landing" transform="translate(-846.000000, -122.000000)">
            <g id="Group-261" transform="translate(846.000000, 121.500000)">
                <g id="Group-68" transform="translate(0.000000, 0.379078)">
                    <path d="M134.101821,345.714749 C133.962471,345.971011 133.832569,346.239081 133.677867,346.477629 C133.832569,346.239081 133.962471,345.971011 134.101821,345.714749" id="Fill-1" fill="#FFC6C2"></path>
                    <path d="M134.778847,344.236226 C134.666659,344.530277 134.563918,344.836138 134.434016,345.111294 C134.563918,344.837319 134.666659,344.531458 134.778847,344.236226" id="Fill-3" fill="#FFC6C2"></path>
                    <path d="M135.298338,342.574422 C135.214492,342.907444 135.141274,343.252276 135.039714,343.567584 C135.141274,343.252276 135.214492,342.907444 135.298338,342.574422" id="Fill-5" fill="#FFC6C2"></path>
                    <path d="M135.664544,340.630022 C135.610221,341.042167 135.564165,341.460216 135.485043,341.848741 C135.564165,341.460216 135.610221,341.042167 135.664544,340.630022" id="Fill-7" fill="#FFC6C2"></path>
                    <path d="M135.859988,337.914122 C135.857626,338.62386 135.82456,339.307618 135.761971,339.963034 C135.82456,339.307618 135.857626,338.62386 135.859988,337.914122" id="Fill-9" fill="#FFC6C2"></path>
                    <path d="M131.208899,349.024539 C127.912925,351.32617 123.158505,351.241143 117.860857,348.182536 L117.765202,381.861453 L173.395229,349.533519 L173.466084,324.534431 L130.623158,349.431959 C130.828639,349.312686 131.014045,349.160346 131.208899,349.024539" id="Fill-11" fill="#EFB930"></path>
                    <path d="M133.268085,347.019085 C133.106297,347.234014 132.953957,347.460753 132.77918,347.657968 C132.953957,347.460753 133.106297,347.234014 133.268085,347.019085" id="Fill-13" fill="#FFC6C2"></path>
                    <path d="M132.301022,348.12042 C132.117978,348.29874 131.9432,348.488869 131.748347,348.649476 C131.9432,348.488869 132.117978,348.29874 132.301022,348.12042" id="Fill-15" fill="#FFC6C2"></path>
                    <polygon id="Fill-17" fill="#FFE164" points="101.536874 181.959917 64.214791 160.411504 8.58476406 192.740619 45.9068472 214.289032"></polygon>
                    <path d="M63.7887117,245.261968 C64.4110614,245.62097 65.0251445,245.93864 65.6309611,246.21852 C65.8281763,246.308271 66.0183059,246.369679 66.2143401,246.452344 C66.6182178,246.622398 67.0244575,246.800718 67.4188878,246.935344 C67.6562545,247.015647 67.8841738,247.064066 68.1191787,247.131378 C68.4628291,247.231757 68.8100222,247.346308 69.1454061,247.419525 C69.3886775,247.472667 69.6201396,247.492743 69.8586873,247.531713 C70.1739954,247.582493 70.4940271,247.648625 70.7998878,247.675787 C71.0360736,247.697044 71.2604501,247.685234 71.4919122,247.69232 C71.7871445,247.701767 72.0882814,247.724205 72.3752472,247.710034 C72.6043474,247.699405 72.8192765,247.655711 73.0424721,247.629731 C73.3152667,247.599026 73.5951469,247.580132 73.8596751,247.52699 C74.0805088,247.482114 74.2871714,247.405354 74.5021005,247.346308 C74.7512765,247.276633 75.0075381,247.221129 75.2460858,247.131378 C75.4539293,247.054618 75.6452399,246.945973 75.8448169,246.852679 C76.0727362,246.747577 76.3077411,246.654283 76.5238511,246.530286 C79.7619587,244.665599 81.7719,240.679963 81.7872521,235.004418 L119.602964,213.028508 C119.541555,212.994261 119.481328,212.969462 119.418739,212.932853 C109.521372,207.218337 101.504044,193.344782 101.53711,181.959444 L45.9070834,214.288559 C45.8751983,225.673897 53.891345,239.547452 63.7887117,245.261968" id="Fill-19" fill="#EFB930"></path>
                    <path d="M173.60815,274.612189 L117.978123,306.941304 C127.884937,312.661724 135.892818,326.529375 135.859752,337.914712 C135.85739,338.62327 135.824324,339.307028 135.761734,339.963624 C135.739297,340.195086 135.694422,340.405292 135.664898,340.629668 C135.610576,341.041812 135.563338,341.459861 135.485397,341.849568 C135.434617,342.102287 135.359038,342.331387 135.29881,342.574658 C135.214964,342.90768 135.141747,343.252512 135.040187,343.56782 C134.963426,343.802825 134.864228,344.011849 134.779201,344.236226 C134.665832,344.531458 134.563091,344.837319 134.43437,345.111294 C134.333991,345.326223 134.212356,345.51281 134.101348,345.714749 C133.963179,345.971011 133.832096,346.239081 133.677395,346.476448 C133.552216,346.671301 133.4046,346.836632 133.267612,347.018495 C133.107006,347.233424 132.954666,347.461343 132.779889,347.657377 C132.629911,347.82625 132.459857,347.9656 132.300431,348.120301 C132.117387,348.298622 131.943791,348.489932 131.747756,348.649358 C131.577703,348.789888 131.388754,348.898534 131.209253,349.024893 C131.0144,349.1607 130.828994,349.31304 130.623512,349.431133 L173.466439,324.533605 L186.253539,317.103199 C189.476294,315.231426 191.473245,311.246971 191.489778,305.585597 C191.521664,294.20026 183.514964,280.33261 173.60815,274.612189" id="Fill-21" fill="#FFE164"></path>
                    <path d="M131.208899,349.024539 C131.3884,348.89936 131.577348,348.789534 131.748583,348.650184 C131.943436,348.489578 132.118214,348.299448 132.301258,348.119947 C132.460683,347.966426 132.629556,347.825896 132.779534,347.658204 C132.954312,347.460989 133.106652,347.233069 133.268439,347.019321 C133.404246,346.836277 133.551862,346.670947 133.678221,346.477275 C133.832923,346.239908 133.962825,345.970656 134.102175,345.714395 C134.212001,345.512456 134.333637,345.325869 134.434016,345.112121 C134.563918,344.835783 134.666659,344.529923 134.778847,344.235871 C134.865055,344.011495 134.964253,343.80247 135.039833,343.567466 C135.141392,343.252157 135.21461,342.907326 135.298456,342.574304 C135.358683,342.331033 135.434263,342.103113 135.485043,341.849214 C135.564165,341.460688 135.610221,341.041458 135.664544,340.630495 C135.694067,340.404937 135.738943,340.194732 135.76138,339.96327 C135.823969,339.306673 135.858216,338.622915 135.859397,337.914358 C135.892463,326.529021 127.885764,312.66137 117.977769,306.94095 L118.121842,255.982678 L81.7870159,235.004654 C81.7716638,240.679018 79.7629034,244.665835 76.5236149,246.529341 C76.3075049,246.654519 76.0725,246.747813 75.8445807,246.852915 C75.6450037,246.946209 75.4536932,247.053673 75.2458496,247.131615 C75.007302,247.221365 74.7510403,247.276869 74.5018643,247.346544 C74.2869352,247.40559 74.0814535,247.482351 73.8594389,247.527226 C73.5949108,247.580368 73.3162115,247.598082 73.0422359,247.629967 C72.8190403,247.655947 72.6041112,247.699642 72.375011,247.71027 C72.0880452,247.724441 71.7880892,247.702003 71.491676,247.692556 C71.2602139,247.68547 71.0358374,247.69728 70.8008325,247.676023 C70.493791,247.648862 70.1737592,247.58273 69.8584511,247.53195 C69.6199034,247.491798 69.3884413,247.472903 69.1451699,247.419761 C68.8097861,247.345363 68.4625929,247.231994 68.1189425,247.131615 C67.8839377,247.064302 67.6571993,247.015884 67.4186516,246.9344 C67.0242213,246.799774 66.6179817,246.622634 66.2141039,246.45258 C66.0180697,246.369915 65.8279401,246.308507 65.6307249,246.217576 C65.0249083,245.938876 64.4108252,245.620025 63.7884756,245.262204 C53.8911088,239.547688 45.8749621,225.672952 45.9068472,214.288796 L8.58476406,192.740382 L8.27063692,303.112378 C8.24701834,311.670571 14.265033,322.10526 21.7131528,326.406204 L117.765202,381.861453 L117.860857,348.182536 C123.158505,351.241143 127.912925,351.32617 131.208899,349.024539" id="Fill-23" fill="#FFCF41"></path>
                    <polygon id="Fill-25" fill="#EFB930" points="117.977651 306.941304 173.607678 274.612189 173.751751 223.653918 118.122905 255.983033"></polygon>
                    <polygon id="Fill-27" fill="#FFE164" points="118.122433 255.98256 173.75246 223.653445 137.417633 202.675421 119.603318 213.028626 81.7876064 235.004536"></polygon>
                    <path d="M73.1149812,197.399148 C73.0949054,197.611715 73.0523919,197.804206 73.0252306,198.010869 C72.9697269,198.441908 72.9201279,198.877671 72.8386438,199.283911 C72.7925875,199.516554 72.7217318,199.724397 72.667409,199.948774 C72.5800203,200.303052 72.500898,200.666778 72.3934335,200.99862 C72.319035,201.231263 72.2210178,201.437925 72.135991,201.65994 C72.0226218,201.956353 71.9187,202.264576 71.7887978,202.540913 C71.6884188,202.754661 71.5667831,202.940067 71.4569567,203.142006 C71.3176071,203.399448 71.186524,203.667519 71.0318222,203.906067 C70.9078247,204.096197 70.7613895,204.260346 70.6279445,204.438666 C70.4649763,204.657138 70.3102746,204.886238 70.1343161,205.084634 C69.9867,205.251145 69.8190081,205.389314 69.6619445,205.542835 C69.4765386,205.722336 69.2993993,205.914827 69.1021841,206.076615 C68.9344922,206.212422 68.7502672,206.321067 68.5743088,206.443884 C68.3770936,206.582052 68.1893259,206.735573 67.9803015,206.856028 L80.5194066,199.569695 L73.2129983,195.352598 C73.2118174,196.061155 73.1775704,196.743732 73.1149812,197.399148" id="Fill-29" fill="#E655BE"></path>
                    <polygon id="Fill-31" fill="#E655BE" points="109.538141 216.324009 165.168168 183.994894 165.331136 126.700938 109.699928 159.030053"></polygon>
                    <path d="M96.4689169,116.956383 C96.2894156,117.081562 96.100467,117.192569 95.9292323,117.331919 C95.7320171,117.492525 95.5572396,117.683836 95.3730147,117.863337 C95.2147702,118.016858 95.0458973,118.156207 94.8982812,118.322718 C94.7211418,118.522295 94.567621,118.751396 94.4034719,118.968687 C94.2700269,119.147007 94.1247726,119.311156 93.9995941,119.502467 C93.8448924,119.741014 93.7138093,120.007904 93.5744597,120.265347 C93.4658142,120.467286 93.3441785,120.652691 93.2437995,120.86644 C93.1138973,121.141596 93.0111565,121.447457 92.8989682,121.741508 C92.8127604,121.965885 92.7135623,122.173728 92.6379829,122.409914 C92.5352421,122.726403 92.4620244,123.072415 92.3781785,123.407799 C92.3179511,123.648709 92.2423716,123.874266 92.1927726,124.125804 C92.1148313,124.509606 92.069956,124.922931 92.0156333,125.329171 C91.98611,125.559452 91.9388729,125.7732 91.9164352,126.010567 C91.853846,126.665982 91.819599,127.348559 91.8184181,128.057117 C91.786533,139.442454 99.7920513,153.310105 109.700046,159.030525 L165.331254,126.70141 C155.479944,121.014056 147.515758,107.273946 147.456711,95.926398 L109.816958,117.799567 C104.519311,114.742141 99.7660709,114.655933 96.4689169,116.956383" id="Fill-33" fill="#FFB4EC"></path>
                    <path d="M109.700165,159.030407 C99.7921694,153.309987 91.7866511,139.442336 91.8185362,128.056999 C91.8197171,127.348441 91.8539641,126.665864 91.9165533,126.010449 C91.938991,125.773082 91.9862281,125.559334 92.0157513,125.329053 C92.0700741,124.922813 92.1149494,124.509488 92.1928907,124.125686 C92.2424897,123.874148 92.3180692,123.649771 92.3782966,123.407681 C92.4621425,123.072297 92.5353601,122.726285 92.638101,122.409796 C92.7136804,122.174791 92.8128785,121.965767 92.8990863,121.74139 C93.0112746,121.447339 93.1140154,121.141478 93.2427367,120.866322 C93.3431156,120.652573 93.4647513,120.467167 93.5745778,120.265229 C93.7139274,120.008967 93.8450105,119.740896 93.9997122,119.502348 C94.1248907,119.311038 94.270145,119.14807 94.40359,118.968568 C94.5677391,118.751278 94.7212599,118.522177 94.8983993,118.3226 C95.0460154,118.156089 95.2148883,118.01674 95.3731328,117.863219 C95.5561768,117.683718 95.7321352,117.492407 95.9293504,117.331801 C96.0994042,117.192451 96.2895337,117.081444 96.469035,116.956265 C99.7650081,114.655815 104.519429,114.742023 109.817077,117.799449 L109.895018,90.4337787 L13.8429689,34.9773484 C13.376502,34.7080966 12.9135778,34.468368 12.460101,34.2605244 C12.3113039,34.1920306 12.1684115,34.1459743 12.0219763,34.084566 C11.7184775,33.9558447 11.4126169,33.8223998 11.1162037,33.7220208 C10.9473308,33.6641553 10.7867244,33.6310892 10.6202134,33.5814902 C10.3521425,33.5035489 10.0817098,33.4149792 9.81954352,33.3582946 C9.64122323,33.319324 9.47235037,33.3063337 9.29875379,33.2768105 C9.05666333,33.2366589 8.81103007,33.1870599 8.57720611,33.1658032 C8.39652396,33.1504511 8.2276511,33.1598985 8.05169267,33.1539939 C7.83203985,33.1480892 7.60766333,33.1303753 7.39391516,33.1410037 C7.21795672,33.1504511 7.05144572,33.1835171 6.880211,33.2035929 C6.67945306,33.2272115 6.47279046,33.2402017 6.27793716,33.2791724 C6.1090643,33.3134193 5.95200073,33.3724658 5.78903252,33.4173411 C5.60362665,33.469302 5.41349707,33.5106345 5.2363577,33.5779474 C5.0781132,33.635813 4.93403985,33.718478 4.7817,33.7893337 C4.61282714,33.868456 4.4368687,33.9369499 4.27508142,34.0302433 C1.83882469,35.434368 0.324873594,38.4374707 0.313064303,42.7100721 L0.00011809291,153.082067 L37.3222012,174.6293 C37.2903161,186.014637 45.3064628,199.889373 55.2050105,205.603889 C60.5144677,208.6684 65.2759738,208.752246 68.5743088,206.443529 C68.7502672,206.320713 68.9344922,206.213248 69.1021841,206.07626 C69.2993993,205.914473 69.4765386,205.721982 69.6619445,205.54248 C69.8190081,205.38896 69.9867,205.250791 70.1343161,205.08428 C70.3114555,204.885884 70.4649763,204.656784 70.6279445,204.439493 C70.7613895,204.259991 70.9078247,204.097023 71.0318222,203.905713 C71.186524,203.667165 71.3176071,203.399094 71.4569567,203.141652 C71.5667831,202.940894 71.6884188,202.754307 71.7887978,202.54174 C71.9187,202.264221 72.0226218,201.955999 72.135991,201.659586 C72.2210178,201.437571 72.319035,201.230908 72.3934335,200.999446 C72.500898,200.666424 72.5800203,200.302698 72.667409,199.948419 C72.7229127,199.724043 72.7925875,199.516199 72.8386438,199.283556 C72.9201279,198.878498 72.9697269,198.442735 73.0252306,198.010515 C73.0523919,197.803852 73.0949054,197.611361 73.1149812,197.398793 C73.1775704,196.743378 73.2118174,196.060801 73.2141792,195.352243 L80.5194066,199.570522 L109.538377,216.324363 L109.700165,159.030407 Z" id="Fill-35" fill="#FE80DB"></path>
                    <polygon id="Fill-37" fill="#E655BE" points="165.525045 58.1041914 109.895018 90.4333064 109.817077 117.800157 147.45683 95.9269885 165.447103 85.4710423"></polygon>
                    <g id="Group-41" transform="translate(3.542787, 0.000000)">
                        <mask id="mask-2" fill="white">
                            <use xlink:href="#path-1"></use>
                        </mask>
                        <g id="Clip-40"></g>
                        <path d="M65.9297362,2.64846968 C62.186191,0.487369438 58.7933817,0.286611491 56.3417729,1.71199291 L0.710565037,34.0411078 C0.717650611,34.0363841 0.725917115,34.0340222 0.733002689,34.0304795 C0.893609046,33.9371861 1.06956748,33.8686922 1.23962127,33.7895699 C1.3907802,33.7187142 1.53603447,33.6360491 1.69309804,33.5770027 C1.87141834,33.5108707 2.06154792,33.4695381 2.24577286,33.4175773 C2.40874108,33.372702 2.56698557,33.3136555 2.73585844,33.2794086 C2.92953081,33.2404379 3.1361934,33.2274477 3.33813227,33.2038291 C3.50936699,33.1837533 3.67469707,33.1506873 3.8506555,33.1412399 C4.06440367,33.1306115 4.2887802,33.1483254 4.50843301,33.1542301 C4.68439144,33.1589538 4.85444523,33.1506873 5.03394645,33.1660394 C5.26895134,33.1872961 5.51340367,33.2368951 5.75549413,33.2770467 C5.93027164,33.305389 6.0991445,33.3195601 6.27628386,33.3585308 C6.53845012,33.4152154 6.80888289,33.5026042 7.07813472,33.5817264 C7.24346479,33.6313254 7.40525208,33.6643914 7.57294401,33.721076 C7.87053814,33.8226359 8.17521785,33.9560809 8.47989756,34.0848022 C8.62633276,34.1462105 8.76922518,34.1922667 8.91684132,34.2607606 C9.37149902,34.4686042 9.8332423,34.7071518 10.2997093,34.9775846 L106.351758,90.432834 L161.981785,58.1037191 L65.9297362,2.64846968 Z" id="Fill-39" fill="#FFB4EC" mask="url(#mask-2)"></path>
                    </g>
                    <path d="M183.048143,386.725464 C183.452021,386.895518 183.85826,387.072657 184.253872,387.207283 C184.492419,387.289948 184.7227,387.338366 184.957705,387.40686 C185.300175,387.506058 185.645006,387.619427 185.979209,387.691464 C186.22248,387.745787 186.456304,387.765863 186.696033,387.804833 C187.008979,387.855613 187.329011,387.921745 187.634872,387.948907 C187.871057,387.970163 188.094253,387.958354 188.325715,387.96544 C188.622128,387.974887 188.923265,387.997325 189.20905,387.981973 C189.43815,387.972525 189.653079,387.928831 189.876275,387.90285 C190.150251,387.870965 190.430131,387.853251 190.693478,387.80011 C190.914312,387.755234 191.120974,387.679655 191.335903,387.619427 C191.585079,387.549753 191.84016,387.494249 192.078708,387.404498 C192.287732,387.327738 192.479043,387.217911 192.67862,387.125799 C192.906539,387.019515 193.141544,386.927403 193.357654,386.802224 C196.596943,384.937537 198.605703,380.951902 198.622236,375.277537 C198.622236,375.212586 198.61515,375.144092 198.613969,375.079141 L180.622515,385.533907 C181.244864,385.89409 181.858947,386.21176 182.464764,386.490459 C182.661979,386.581391 182.85329,386.642799 183.048143,386.725464" id="Fill-42" fill="#4F46F2"></path>
                    <path d="M169.709077,192.955666 C169.949986,192.864734 170.20861,192.80805 170.460147,192.738375 C170.672715,192.680509 170.877015,192.60493 171.095487,192.560055 C171.357654,192.506913 171.633991,192.489199 171.905605,192.458495 C172.131162,192.432514 172.349634,192.38882 172.581096,192.377011 C172.860976,192.362839 173.155028,192.385277 173.444355,192.393544 C173.681722,192.400629 173.913184,192.38882 174.156456,192.411257 C174.463497,192.438419 174.78471,192.504551 175.101199,192.556512 C175.338566,192.594301 175.567666,192.614377 175.809756,192.666338 C176.148683,192.740737 176.499419,192.855287 176.846612,192.956847 C177.076893,193.02416 177.30127,193.071397 177.535094,193.1517 C177.916534,193.280421 178.308602,193.454018 178.698309,193.616986 C178.908514,193.704375 179.111634,193.770507 179.32302,193.867343 C179.928837,194.146042 180.541739,194.463712 181.164089,194.822715 L181.187707,186.140524 L168.398245,193.573292 C168.408874,193.567387 168.420683,193.563844 168.43013,193.556759 C168.648602,193.43158 168.884788,193.338287 169.113888,193.232003 C169.313465,193.139891 169.502414,193.032426 169.709077,192.955666" id="Fill-44" fill="#97A4FF"></path>
                    <path d="M290.431915,356.59335 L290.118969,466.965345 C290.116607,467.497944 290.092989,468.011648 290.045751,468.504095 C290.028037,468.680054 289.99379,468.84066 289.970172,469.010714 C289.93002,469.317756 289.895773,469.630702 289.837908,469.920029 C289.800118,470.103073 289.745795,470.268403 289.702101,470.444362 C289.63715,470.701804 289.580465,470.967513 289.502524,471.209604 C289.445839,471.3832 289.372622,471.537902 289.308852,471.705594 C289.223825,471.927609 289.144702,472.159071 289.046685,472.368095 C288.971106,472.529883 288.878993,472.670413 288.795147,472.823934 C288.691226,473.015244 288.593209,473.214822 288.478658,473.391961 C288.385365,473.536034 288.275539,473.660032 288.17516,473.793477 C288.051162,473.957626 287.935431,474.130042 287.801986,474.278839 C287.690979,474.405198 287.563438,474.510301 287.445345,474.624851 C287.307177,474.759477 287.174913,474.90355 287.027297,475.022824 C286.899756,475.127927 286.758045,475.210592 286.622238,475.305066 C286.475803,475.406626 286.338815,475.519995 286.185294,475.608565 L341.815321,443.280631 C344.236226,441.874144 345.737187,438.885213 345.748996,434.63623 L346.061942,324.265416 L290.431915,356.59335 Z" id="Fill-46" fill="#2B23C9"></path>
                    <path d="M287.444991,474.625087 C287.564265,474.509356 287.690624,474.404253 287.802813,474.279075 C287.935077,474.130278 288.051989,473.957862 288.174805,473.793713 C288.275184,473.660268 288.385011,473.53627 288.478304,473.392197 C288.594035,473.215058 288.692052,473.015481 288.795974,472.82417 C288.878639,472.670649 288.970752,472.530119 289.046331,472.368332 C289.144348,472.159307 289.22347,471.927845 289.308497,471.704649 C289.372267,471.538138 289.445485,471.383437 289.50217,471.208659 C289.581292,470.966569 289.636796,470.702041 289.701747,470.444598 C289.745441,470.26864 289.799764,470.10331 289.836373,469.920266 C289.895419,469.630938 289.929666,469.317992 289.970999,469.01095 C289.993436,468.840896 290.028864,468.68029 290.045397,468.503151 C290.092634,468.010703 290.117434,467.49818 290.119796,466.965581 L290.431561,356.593586 L256.323967,336.901593 C256.3405,331.209515 254.348272,324.896268 251.110165,319.290398 C247.872057,313.684527 243.391612,308.786033 238.432891,305.923461 C228.524896,300.203041 220.466236,304.794493 220.434351,316.17983 L180.883854,293.345385 L180.739781,344.304838 C190.600539,349.998097 198.555277,363.732302 198.613143,375.078669 C198.614324,375.144801 198.621409,375.212114 198.621409,375.277065 C198.604876,380.95261 196.596116,384.938246 193.358008,386.802933 C193.141898,386.926931 192.905712,387.019043 192.678974,387.125327 C192.479397,387.217439 192.288087,387.327266 192.079062,387.405207 C191.840514,387.494957 191.584253,387.550461 191.335077,387.618955 C191.121329,387.679182 190.914666,387.754762 190.692651,387.800818 C190.429304,387.852779 190.149424,387.870493 189.876629,387.902378 C189.652253,387.928358 189.438505,387.972053 189.208223,387.982681 C188.922439,387.998033 188.621302,387.974415 188.324889,387.964967 C188.094607,387.957882 187.871412,387.969691 187.634045,387.949615 C187.329365,387.921273 187.009333,387.855141 186.696387,387.804361 C186.455478,387.76539 186.222835,387.746495 185.979563,387.692173 C185.64536,387.618955 185.300529,387.506767 184.95806,387.407569 C184.723055,387.337894 184.491593,387.289476 184.253045,387.207992 C183.857434,387.072185 183.451194,386.895045 183.048497,386.724992 C182.853644,386.642327 182.662333,386.580918 182.465118,386.489987 C181.859302,386.212468 181.244038,385.893618 180.622869,385.534615 L180.527214,419.213532 L276.579263,474.668781 C280.564898,476.969231 284.141933,477.035363 286.623065,475.305302 C286.75769,475.210828 286.899402,475.128163 287.026942,475.02306 C287.174558,474.902605 287.306822,474.758532 287.444991,474.625087" id="Fill-48" fill="#4432DC"></path>
                    <polygon id="Fill-50" fill="#97A4FF" points="277.292898 222.911349 332.922925 190.583415 236.870876 135.126985 181.240849 167.4561"></polygon>
                    <path d="M238.433009,305.922871 C243.39173,308.786624 247.872175,313.683937 251.110283,319.289807 C254.34839,324.895678 256.340618,331.208924 256.324085,336.901003 L290.431679,356.592995 L290.744625,246.222181 C290.769425,237.652179 284.741963,227.211585 277.292662,222.911822 L181.240613,167.455391 L181.187471,186.140052 L181.163853,194.822242 C180.542684,194.464421 179.928601,194.146751 179.322784,193.868052 C179.111398,193.770034 178.907097,193.703902 178.698073,193.616514 C178.308366,193.453545 177.916298,193.28113 177.536038,193.151228 C177.301033,193.070924 177.076657,193.023687 176.847557,192.956374 C176.499183,192.854814 176.148447,192.741445 175.80952,192.667047 C175.568611,192.613905 175.338329,192.59501 175.102144,192.556039 C174.785655,192.504078 174.464442,192.437946 174.156219,192.410785 C173.912948,192.388347 173.681486,192.400157 173.444119,192.394252 C173.155972,192.384805 172.861921,192.362367 172.58086,192.376538 C172.349398,192.388347 172.130926,192.432042 171.905368,192.458022 C171.634936,192.489907 171.357417,192.50644 171.095251,192.559582 C170.876779,192.604457 170.672478,192.680037 170.459911,192.739083 C170.208373,192.808758 169.94975,192.865443 169.70884,192.955193 C169.502178,193.033135 169.313229,193.140599 169.113652,193.232712 C168.884552,193.338995 168.648366,193.432289 168.431075,193.557467 C165.191787,195.420973 163.180664,199.405428 163.164131,205.079792 C163.132246,216.475758 171.138945,230.33278 181.046941,236.05202 L180.883972,293.345976 L220.434469,316.180421 C220.466354,304.795083 228.525014,300.20245 238.433009,305.922871" id="Fill-52" fill="#7E8AFF"></path>
                    <path d="M332.923515,190.582825 L277.293489,222.910759 C284.741608,227.211703 290.76907,237.652297 290.744271,246.222299 L290.432506,356.593113 L346.062533,324.265179 L346.375479,213.893184 C346.399097,205.323182 340.371635,194.882588 332.923515,190.582825" id="Fill-54" fill="#6F7FEF"></path>
                    <polygon id="Fill-56" fill="#C2D4EA" points="131.685167 473.095902 79.9333115 456.281833 133.703375 407.866102 185.455231 424.681352"></polygon>
                    <polygon id="Fill-58" fill="#D9E7F4" points="109.716343 467.626075 57.2311306 437.323434 127.020497 397.031314 179.50571 427.332774"></polygon>
                    <polygon id="Fill-60" fill="#F3FAFF" points="109.809755 464.965441 57.3245421 434.662801 127.113909 394.370681 179.599122 424.672141"></polygon>
                    <polygon id="Fill-62" fill="#4432DC" points="163.113588 425.656917 125.408883 403.88767 127.747123 402.537868 165.451827 424.305934"></polygon>
                    <polygon id="Fill-64" fill="#FFCF41" points="157.697374 428.78449 119.991489 407.014062 122.33091 405.665441 160.035614 427.433507"></polygon>
                    <polygon id="Fill-66" fill="#FE80DB" points="152.281161 431.911 114.575276 410.141753 116.914697 408.791951 154.619401 430.561198"></polygon>
                </g>
                <g id="Group-71" transform="translate(108.645477, 411.342403)">
                    <mask id="mask-4" fill="white">
                        <use xlink:href="#path-3"></use>
                    </mask>
                    <g id="Clip-70"></g>
                    <polygon id="Fill-69" fill="url(#linearGradient-5)" mask="url(#mask-4)" points="0.513704156 2.30635452 38.2184083 24.0756015 40.5578289 22.7246186 2.85194377 0.956552567"></polygon>
                </g>
                <g id="Group-218" transform="translate(31.885086, 144.452428)">
                    <polygon id="Fill-72" fill="#7E8AFF" points="109.562941 294.092913 71.8582364 272.322486 74.196476 270.972684 111.90118 292.741931"></polygon>
                    <polygon id="Fill-74" fill="#FFCF41" points="104.146727 297.219305 66.4408423 275.450058 68.7802628 274.100256 106.484967 295.868322"></polygon>
                    <polygon id="Fill-76" fill="#7E8AFF" points="98.7299237 300.346996 61.0252196 278.576568 63.3634592 277.227947 101.068163 298.996013"></polygon>
                    <polygon id="Fill-78" fill="#FE80DB" points="93.3137105 303.473388 55.6090064 281.704141 57.947246 280.354339 95.6519501 302.123586"></polygon>
                    <polygon id="Fill-80" fill="#4432DC" points="87.8973792 306.601078 50.1926751 284.831831 52.5309147 283.482029 90.2356188 305.250095"></polygon>
                    <polygon id="Fill-82" fill="#7E8AFF" points="82.481166 309.728651 44.7752809 287.958223 47.1147015 286.609602 84.8194056 308.377668"></polygon>
                    <polygon id="Fill-84" fill="#FE80DB" points="65.4931467 306.17429 39.3591858 291.08674 41.6986064 289.735757 67.8313863 304.823308"></polygon>
                    <polygon id="Fill-86" fill="#F3FAFF" points="171.755509 319.931524 123.6728 335.554035 73.7135941 290.571265 121.796303 274.947573"></polygon>
                    <polygon id="Fill-88" fill="#FE80DB" points="121.537207 283.01013 86.9950313 294.23368 85.3204738 292.726815 119.863831 281.503265"></polygon>
                    <polygon id="Fill-90" fill="#4432DC" points="132.866687 293.210641 98.3245108 304.435372 89.5324936 296.519605 124.075851 285.296055"></polygon>
                    <polygon id="Fill-92" fill="#7E8AFF" points="127.936544 309.935077 110.665456 315.546852 101.87462 307.632266 119.145708 302.01931"></polygon>
                    <polygon id="Fill-94" fill="#FFCF41" points="145.208222 304.32342 132.31602 308.512176 123.526364 300.596408 136.417386 296.407653"></polygon>
                    <polygon id="Fill-96" fill="#9EBBDD" points="3.70492885 258.52203 0.342823716 256.580583 0.342823716 96.334409 3.70492885 98.2758565"></polygon>
                    <polygon id="Fill-98" fill="#BDD7EF" points="3.70492885 98.2755022 0.342823716 96.3340548 5.10669169 93.5848518 8.46761589 95.5251183"></polygon>
                    <polygon id="Fill-100" fill="#80A0C1" points="3.70492885 258.52203 3.70492885 98.2758565 8.46761589 95.5254726 8.46761589 255.771646"></polygon>
                    <polygon id="Fill-102" fill="#BDD7EF" points="34.4926951 145.232432 3.70469267 127.457087 8.46737971 124.729141 39.2553822 142.503304"></polygon>
                    <polygon id="Fill-104" fill="#9EBBDD" points="34.4926951 150.732255 3.70469267 132.95691 3.70469267 127.457323 34.4926951 145.232668"></polygon>
                    <polygon id="Fill-106" fill="#BDD7EF" points="34.4926951 171.313133 3.70469267 153.537788 8.46737971 150.809842 39.2553822 168.584005"></polygon>
                    <polygon id="Fill-108" fill="#9EBBDD" points="34.4926951 176.812956 3.70469267 159.03643 3.70469267 153.538024 34.4926951 171.313369"></polygon>
                    <polygon id="Fill-110" fill="#BDD7EF" points="34.4926951 197.392771 3.70469267 179.617426 8.46737971 176.88948 39.2553822 194.663644"></polygon>
                    <polygon id="Fill-112" fill="#9EBBDD" points="34.4926951 202.892594 3.70469267 185.117249 3.70469267 179.617662 34.4926951 197.393007"></polygon>
                    <polygon id="Fill-114" fill="#BDD7EF" points="34.4926951 223.47359 3.70469267 205.697064 8.46737971 202.969118 39.2553822 220.744463"></polygon>
                    <polygon id="Fill-116" fill="#9EBBDD" points="34.4926951 228.972232 3.70469267 211.196887 3.70469267 205.6973 34.4926951 223.473826"></polygon>
                    <polygon id="Fill-118" fill="#BDD7EF" points="34.4926951 249.553228 3.70469267 231.777883 8.46737971 229.049937 39.2553822 246.824101"></polygon>
                    <polygon id="Fill-120" fill="#9EBBDD" points="34.4926951 255.053051 3.70469267 237.277706 3.70469267 231.778119 34.4926951 249.553464"></polygon>
                    <polygon id="Fill-122" fill="#BDD7EF" points="37.8538555 117.992649 34.4929313 116.051201 39.2556183 113.301998 42.6165425 115.242265"></polygon>
                    <polygon id="Fill-124" fill="#9EBBDD" points="37.8538555 278.239177 34.4929313 276.297729 34.4929313 116.051556 37.8538555 117.993003"></polygon>
                    <polygon id="Fill-126" fill="#80A0C1" points="37.8538555 278.239177 37.8538555 117.993003 42.6165425 115.242619 42.6165425 275.488793"></polygon>
                    <path d="M216.742648,89.5073399 C216.7828,89.9135795 216.456863,90.2654963 215.915998,90.6091467 C215.761296,90.7071638 215.934893,88.4137995 215.402294,88.7964205 C215.247592,88.9074279 207.879775,94.6443814 203.766599,93.585088 C203.30958,93.4669951 203.164325,93.0477653 203.151335,92.7005721 L203.151335,91.7747237 C203.094651,90.7307824 204.647572,89.1400709 207.004707,86.8431638 C209.60157,84.3124328 211.257233,82.7323496 215.140127,84.9737531 C216.24902,85.6149976 216.69423,86.0932738 216.700135,86.5030562 L216.742648,89.5073399 Z" id="Fill-128" fill="#2B1F9B"></path>
                    <path d="M207.004589,86.8432819 C203.86686,89.9007073 202.155694,91.7075289 203.766481,92.638101 C205.378449,93.5686731 208.597662,92.1669103 211.900721,89.6704262 C214.795178,87.4845264 219.021723,87.2152746 215.140009,84.9738711 C211.258295,82.7324677 209.601452,84.3125509 207.004589,86.8432819" id="Fill-130" fill="#2B1F9B"></path>
                    <path d="M210.131099,85.1047181 L210.335399,60.9925078 C210.346028,59.8316545 211.062852,58.7936178 212.146944,58.3767499 L214.034069,57.6481166 L221.96637,62.9197841 L218.092922,64.8907548 C218.092922,64.8907548 218.815651,71.5795372 216.913174,77.8042144 C216.913174,77.8042144 215.582267,80.5215323 215.845614,86.8477694 C215.845614,86.8477694 211.614345,88.1668672 210.131099,85.1047181" id="Fill-132" fill="#FEC1AF"></path>
                    <path d="M228.321304,95.2758242 C228.361455,95.6820638 228.035519,96.0339807 227.494653,96.3776311 C227.339952,96.4768291 227.514729,94.1822839 226.980949,94.5649049 C226.826247,94.6759122 219.458431,100.412866 215.345255,99.3535724 C214.889416,99.2366604 214.744162,98.8162496 214.729991,98.4690565 L214.731172,97.5432081 C214.673306,96.4992667 216.226228,94.9085553 218.583362,92.6116482 C221.180225,90.0809171 222.835888,88.500834 226.718783,90.7422374 C227.827675,91.3834819 228.272886,91.8617582 228.27879,92.2715406 L228.321304,95.2758242 Z" id="Fill-134" fill="#2B1F9B"></path>
                    <path d="M218.583244,92.6118844 C215.446697,95.6693098 213.734349,97.4761313 215.345137,98.4067034 C216.957105,99.3372756 220.177499,97.9355127 223.479376,95.4402095 C226.373833,93.2531289 230.600379,92.983877 226.718665,90.7424736 C222.836951,88.5010702 221.180107,90.0811533 218.583244,92.6118844" id="Fill-136" fill="#2B1F9B"></path>
                    <path d="M221.737388,91.1523741 L221.966488,62.9199022 L231.300552,65.9454425 L229.700393,70.5451614 C229.700393,70.5451614 230.42194,76.6942592 228.520644,82.9189364 C228.520644,82.9189364 227.189737,85.6362543 227.453085,91.9613105 C227.453085,91.9613105 224.024847,93.9098435 221.737388,91.1523741" id="Fill-138" fill="#FEC1AF"></path>
                    <path d="M230.088092,34.1817565 C230.088092,34.1817565 219.691192,24.7296 226.0316,7.91316968 L230.902933,25.3696636 L230.088092,34.1817565 Z" id="Fill-140" fill="#4432DC"></path>
                    <path d="M210.006511,1.27493105 L210.006511,1.27493105 C208.557511,2.12992372 208.070968,4.01350562 208.92596,5.46250562 L224.008787,30.9351462 C224.863779,32.3841462 226.748542,32.870689 228.197542,32.0156963 C229.646542,31.1618846 230.133085,29.2771218 229.278092,27.8281218 L214.194085,2.3566621 C213.340273,0.906481174 211.455511,0.419938386 210.006511,1.27493105" id="Fill-142" fill="#FEC1AF"></path>
                    <path d="M226.275462,49.6659807 L212.146826,58.3765137 C212.146826,58.3765137 217.064215,57.1731469 229.700156,70.545988 L243.596149,62.5274795 L226.275462,49.6659807 Z" id="Fill-144" fill="#2B1F9B"></path>
                    <path d="M241.767008,63.7493868 C241.652458,63.8214235 241.523737,63.8674797 241.376121,63.8781081 C239.328389,64.0375335 231.966478,62.4338318 224.602204,54.1342621 C223.995206,53.4505042 223.604319,52.5234748 223.604319,51.7476044 L223.604319,28.1951545 C223.604319,26.4202181 224.238478,25.1743379 225.2588,24.6004064 L230.796177,21.3693844 C231.802328,20.7694724 233.201729,20.841509 234.741661,21.7307487 L242.293702,26.0907389 C245.342861,27.8526851 247.839345,32.1737046 247.839345,35.6952352 L247.839345,59.3846729 C247.839345,59.9361667 247.64213,60.3412254 247.304385,60.5183648 L241.767008,63.7493868 Z" id="Fill-146" fill="#E655BE"></path>
                    <path d="M240.929847,27.5534377 C240.941657,28.1391785 240.561398,28.7272812 239.787889,29.1736724 C238.26331,30.0534645 235.790444,30.0534645 234.265865,29.1736724 C233.492356,28.7272812 233.113278,28.1391785 233.125087,27.5534377 L233.125087,22.4223007 C233.113278,21.8365599 233.492356,21.2484572 234.265865,20.802066 C235.790444,19.9222738 238.26331,19.9222738 239.787889,20.802066 C240.561398,21.2484572 240.941657,21.8365599 240.929847,22.4223007 L240.929847,27.5534377 Z" id="Fill-148" fill="#F09C84"></path>
                    <path d="M226.275462,14.2363364 C226.275462,20.1740479 231.088929,24.9875149 237.026641,24.9875149 C242.965533,24.9875149 247.779,20.1740479 247.779,14.2363364 C247.779,8.29862494 242.965533,3.48515795 237.026641,3.48515795 C231.088929,3.48515795 226.275462,8.29862494 226.275462,14.2363364" id="Fill-150" fill="#FEC1AF"></path>
                    <path d="M233.841911,34.1817565 C233.841911,34.1817565 241.837982,25.3696636 236.288796,9.04922347 L226.334745,12.4762797 C226.334745,12.4762797 222.906508,3.99012323 234.167847,1.54087628 C234.167847,1.54087628 241.675014,-0.0899867971 244.287229,6.11107188 C244.287229,6.11107188 250.325319,6.60115746 248.039041,19.0032748 C248.039041,19.0032748 247.713104,30.7547002 233.841911,34.1817565" id="Fill-152" fill="#4432DC"></path>
                    <path d="M216.710409,53.5892633 L216.710409,53.5892633 C217.671685,54.9685885 219.588333,55.3110579 220.967658,54.3497817 L245.130648,37.5109137 C246.509974,36.5484565 246.852443,34.6329895 245.891167,33.2524834 C244.92989,31.8731582 243.013243,31.5306888 241.632736,32.491965 L217.470927,49.3320139 C216.090421,50.2921093 215.749133,52.2087572 216.710409,53.5892633" id="Fill-154" fill="#FEC1AF"></path>
                    <g id="Group-158" transform="translate(295.232274, 324.755501)">
                        <mask id="mask-7" fill="white">
                            <use xlink:href="#path-6"></use>
                        </mask>
                        <g id="Clip-157"></g>
                        <path d="M0.876013203,4.84487971 C0.802795599,6.10611198 2.70999609,7.87868655 5.61035795,9.55324401 C9.4684533,11.7816572 10.8371501,14.6052587 15.6069227,11.851332 C16.9708958,11.0624714 17.5424655,10.435398 17.5767125,9.88862787 L17.5767125,6.92449584 C17.7089765,5.54398973 14.4023751,4.68545428 11.6271917,3.08411443 C7.7679154,0.855701222 3.61104499,-0.355932029 1.63180782,0.786026406 C1.12873203,1.07771589 0.891365281,1.44970856 0.876013203,1.87838582 L0.876013203,4.84487971 Z" id="Fill-156" fill="#2B1F9B" mask="url(#mask-7)"></path>
                    </g>
                    <path d="M300.842278,331.312846 C296.983001,329.085614 294.883309,326.685966 296.863727,325.541646 C298.844145,324.399687 302.999835,325.611321 306.860292,327.839734 C310.718388,330.066966 315.608615,330.855827 310.837661,333.609753 C306.06907,336.36368 304.701554,333.541259 300.842278,331.312846" id="Fill-159" fill="#2B1F9B"></path>
                    <path d="M306.834666,322.211426 C306.761448,323.473839 308.667468,325.245233 311.56783,326.91979 C315.427106,329.148203 316.794622,331.971805 321.564395,329.217878 C322.929549,328.430198 323.499937,327.801944 323.534184,327.256355 L323.534184,324.291042 C323.667629,322.911717 320.359847,322.053181 317.585844,320.451841 C313.726568,318.223428 309.569698,317.010614 307.58928,318.153753 C307.086204,318.445443 306.848837,318.816255 306.834666,319.246113 L306.834666,322.211426 Z" id="Fill-161" fill="#2B1F9B"></path>
                    <path d="M311.567594,323.92519 C307.708317,321.696777 305.608625,319.297129 307.589044,318.153989 C309.570643,317.01085 313.726332,318.223664 317.585608,320.452078 C321.443704,322.678129 326.333931,323.46817 321.564158,326.222097 C316.794386,328.976024 315.428051,326.153603 311.567594,323.92519" id="Fill-163" fill="#2B1F9B"></path>
                    <path d="M302.591824,233.620959 L302.591824,233.620959 C304.066804,232.695111 306.030689,233.142683 306.957719,234.616482 L320.125078,255.556717 C321.052108,257.030517 320.603355,258.995583 319.129555,259.922612 C317.654575,260.850822 315.690689,260.402069 314.76366,258.92827 L301.596301,237.988035 C300.669271,236.513055 301.118024,234.547989 302.591824,233.620959" id="Fill-165" fill="#FEC1AF"></path>
                    <g id="Group-169" transform="translate(310.584352, 250.356968)">
                        <mask id="mask-9" fill="white">
                            <use xlink:href="#path-8"></use>
                        </mask>
                        <g id="Clip-168"></g>
                        <path d="M0.63722934,6.19184743 L4.88621222,12.9491237 C6.31986015,15.2283169 9.35957164,15.9215222 11.6387648,14.4878743 C13.9203198,13.0542264 14.6123443,10.0145149 13.1786963,7.73532176 L8.92971345,0.978045477 C8.92971345,0.978045477 3.60608509,-1.02481027 0.63722934,6.19184743" id="Fill-167" fill="#9EBBDD" mask="url(#mask-9)"></path>
                    </g>
                    <path d="M312.672353,330.326889 C312.825874,330.031656 312.893187,329.699815 312.893187,329.367974 L312.893187,296.274798 C312.893187,294.183373 310.734448,292.469844 308.097433,292.469844 C305.460419,292.469844 303.30168,294.183373 303.30168,296.274798 L303.30168,332.258889 C303.30168,332.790307 303.645331,333.261497 304.154311,333.415018 C305.994199,333.971236 310.35537,334.767182 312.672353,330.326889" id="Fill-170" fill="#3B2AD2"></path>
                    <path d="M323.425303,322.569011 C323.572919,322.271417 323.633146,321.938395 323.626061,321.605373 L322.90097,288.521644 C322.854914,286.429038 320.659567,284.763928 318.023733,284.822974 C315.386718,284.88084 313.26577,286.639243 313.313007,288.73185 L314.100687,324.706493 C314.112496,325.23673 314.466775,325.700835 314.978117,325.842546 C316.828633,326.359793 321.207518,327.060084 323.425303,322.569011" id="Fill-172" fill="#3B2AD2"></path>
                    <path d="M304.883299,302.224437 C305.001392,302.297655 305.136018,302.347254 305.288357,302.357882 C307.409306,302.523212 315.031022,300.862826 322.656282,292.268024 C323.284536,291.560647 323.689595,290.600552 323.689595,289.79752 L323.689595,265.410153 C323.689595,263.572628 323.032998,262.283053 321.977247,261.689046 L316.243837,258.343474 C315.199895,257.722305 313.753257,257.796703 312.157822,258.716647 L304.33771,263.231339 C301.179905,265.054694 298.597213,269.529234 298.597213,273.175943 L298.597213,297.706202 C298.597213,298.276591 298.801514,298.695821 299.149888,298.878865 L304.883299,302.224437 Z" id="Fill-174" fill="#9EBBDD"></path>
                    <path d="M307.102146,264.746117 C307.090337,265.353114 307.482406,265.960112 308.284256,266.423036 C309.863159,267.334713 312.423413,267.334713 314.002315,266.423036 C314.802985,265.960112 315.196234,265.353114 315.184425,264.746117 L315.184425,259.433117 C315.196234,258.826119 314.802985,258.217941 314.002315,257.755017 C312.423413,256.84452 309.863159,256.84452 308.284256,257.755017 C307.482406,258.217941 307.090337,258.826119 307.102146,259.433117 L307.102146,264.746117 Z" id="Fill-176" fill="#F09C84"></path>
                    <path d="M322.27555,250.956644 C322.27555,257.104561 317.292029,262.089263 311.142932,262.089263 C304.995015,262.089263 300.010313,257.104561 300.010313,250.956644 C300.010313,244.808727 304.995015,239.824025 311.142932,239.824025 C317.292029,239.824025 322.27555,244.808727 322.27555,250.956644" id="Fill-178" fill="#FEC1AF"></path>
                    <path d="M278.329754,249.17722 L278.329754,249.17722 C279.465808,247.858122 281.474568,247.706963 282.794847,248.844198 L300.680018,265.050088 C301.999116,266.186142 302.150275,268.196083 301.01304,269.516362 C299.876986,270.836641 297.867045,270.986619 296.547947,269.850565 L278.663957,253.643494 C277.343678,252.50744 277.192519,250.497499 278.329754,249.17722" id="Fill-180" fill="#FEC1AF"></path>
                    <path d="M292.46394,268.619919 L298.512659,273.825454 C300.554485,275.582677 303.66151,275.350033 305.419913,273.309388 C307.177135,271.266381 306.944492,268.158175 304.902666,266.400953 L298.853947,261.195417 C298.853947,261.195417 293.17604,260.848224 292.46394,268.619919" id="Fill-182" fill="#9EBBDD"></path>
                    <path d="M317.418034,261.106493 C313.907132,263.151863 311.224061,261.59776 310.269871,260.116875 C307.867861,256.392224 307.468707,258.876899 306.037421,257.12322 C304.160924,254.042176 304.582516,249.839249 301.980929,247.897801 C298.246832,245.110809 299.269516,239.562804 309.008638,237.07931 C322.093333,233.743185 327.249269,250.231317 319.081964,259.760234 C318.497404,260.442811 318.195086,260.653017 317.418034,261.106493" id="Fill-184" fill="#E456BE"></path>
                    <path d="M307.254368,257.585553 C306.31553,258.524392 305.276312,258.246874 304.932662,256.964385 C304.589011,255.681896 305.07083,253.880979 306.009669,252.94214 C306.948508,252.003301 307.988906,252.282001 308.332556,253.56449 C308.675026,254.846979 308.193207,256.646715 307.254368,257.585553" id="Fill-186" fill="#FEC1AF"></path>
                    <path d="M34.1749071,132.51784 C34.2445819,133.72475 32.4212274,135.421745 29.6436822,137.024266 C25.9497359,139.157024 24.6412665,141.86017 20.0757946,139.224337 C18.769687,138.469723 18.2217359,137.86863 18.1898509,137.346659 L18.1898509,134.507706 C18.0623105,133.186246 21.2283814,132.3655 23.884291,130.831474 C27.5782372,128.699897 31.5567873,127.539043 33.4521785,128.633765 C33.9339976,128.911283 34.1607359,129.267923 34.1749071,129.678887 L34.1749071,132.51784 Z" id="Fill-188" fill="#2A209B"></path>
                    <path d="M29.6438002,134.157678 C33.3377465,132.024921 35.3476878,129.728013 33.4522966,128.633292 C31.5569054,127.539752 27.5783553,128.699424 23.884409,130.832182 C20.1904628,132.96494 15.5092599,133.720735 20.0759127,136.356568 C24.6413846,138.992402 25.949854,136.290436 29.6438002,134.157678" id="Fill-190" fill="#2A209B"></path>
                    <path d="M23.9081457,125.444902 C23.9778205,126.652992 22.154466,128.349987 19.3769208,129.952508 C15.6829746,132.085266 14.3745051,134.787232 9.80903325,132.151398 C8.50174474,131.396784 7.95497457,130.796872 7.92308949,130.274902 L7.92308949,127.435948 C7.79554914,126.114489 10.96162,125.293743 13.6175296,123.759716 C17.3114758,121.628139 21.2900259,120.466105 23.1854171,121.560826 C23.6672362,121.838344 23.8939746,122.194985 23.9081457,122.607129 L23.9081457,125.444902 Z" id="Fill-192" fill="#2A209B"></path>
                    <path d="M19.3770389,127.084858 C23.0709851,124.9521 25.0809264,122.655193 23.1855352,121.560472 C21.290144,120.466931 17.310413,121.627785 13.6176477,123.760543 C9.92370147,125.89212 5.24249853,126.647914 9.80797042,129.283748 C14.3746232,131.920763 15.6830927,129.218797 19.3770389,127.084858" id="Fill-194" fill="#2A209B"></path>
                    <path d="M27.6699954,44.5778296 L27.6699954,44.5778296 C26.2410711,43.7204751 24.3692985,44.188123 23.511944,45.6170472 L11.3294795,65.9207611 C10.4721249,67.3496853 10.9397729,69.2214579 12.3686971,70.0799934 C13.7988022,70.9373479 15.6693939,70.4697 16.5279293,69.0395949 L28.709213,48.7370619 C29.5677484,47.3081377 29.0989196,45.436365 27.6699954,44.5778296" id="Fill-196" fill="#FEC1AF"></path>
                    <path d="M19.8688958,66.6924983 L15.9375829,73.243112 C14.6113995,75.4538112 11.7169423,76.1777208 9.50624303,74.8515374 C7.29554377,73.5241731 6.5704533,70.6297159 7.8978176,68.4190166 L11.8279496,61.8684029 C11.8279496,61.8684029 16.884688,59.8454714 19.8688958,66.6924983" id="Fill-198" fill="#BAD4F5"></path>
                    <path d="M18.3205797,133.213171 C18.1729636,132.930929 18.1091934,132.612078 18.1091934,132.295589 L18.1091934,100.618347 C18.1091934,98.6154917 20.1746384,96.9763621 22.6994648,96.9763621 C25.2231103,96.9763621 27.2885553,98.6154917 27.2885553,100.618347 L27.2885553,135.061325 C27.2885553,135.570306 26.959076,136.022602 26.4725333,136.170218 C24.7129489,136.701636 20.5371836,137.464516 18.3205797,133.213171" id="Fill-200" fill="#3B2AD2"></path>
                    <path d="M8.3858956,125.88775 C8.23827946,125.605508 8.17450929,125.286657 8.17450929,124.968987 L8.17450929,93.2917452 C8.17450929,91.2900704 10.2399543,89.6497599 12.7647807,89.6497599 C15.2884262,89.6497599 17.3538711,91.2900704 17.3538711,93.2917452 L17.3538711,127.735904 C17.3538711,128.244885 17.0243919,128.696 16.5378491,128.843616 C14.7782648,129.376215 10.6024995,130.137914 8.3858956,125.88775" id="Fill-202" fill="#3B2AD2"></path>
                    <path d="M25.7757851,106.312433 C25.6624159,106.38447 25.5336946,106.430526 25.3872594,106.441155 C23.3584232,106.598218 16.0614623,105.008688 8.76332054,96.7835164 C8.1610467,96.1056631 7.77370196,95.1857193 7.77370196,94.4169345 L7.77370196,71.073509 C7.77370196,69.3139247 8.40313716,68.0798538 9.41283154,67.510646 L14.90179,64.3091472 C15.8996751,63.7139589 17.2860858,63.7848147 18.8130271,64.6669687 L26.2977557,68.9879883 C29.3197533,70.7334015 31.7937998,75.0166313 31.7937998,78.5074577 L31.7937998,101.98669 C31.7937998,102.53346 31.5977655,102.934976 31.2635626,103.110934 L25.7757851,106.312433 Z" id="Fill-204" fill="#BAD4F5"></path>
                    <path d="M23.6515298,70.4376968 C23.6633391,71.017533 23.2866227,71.5997311 22.5201998,72.0425795 C21.0086105,72.9152861 18.5581826,72.9152861 17.0465934,72.0425795 C16.2801704,71.5997311 15.903454,71.017533 15.9152633,70.4376968 L15.9152633,65.3514352 C15.903454,64.771599 16.2801704,64.18822 17.0465934,63.7453716 C18.5581826,62.873846 21.0086105,62.873846 22.5201998,63.7453716 C23.2866227,64.18822 23.6633391,64.771599 23.6515298,65.3514352 L23.6515298,70.4376968 Z" id="Fill-206" fill="#F09C84"></path>
                    <path d="M9.12692861,57.2382161 C9.12692861,63.1227858 13.8978822,67.8949203 19.7836328,67.8949203 C25.6693834,67.8949203 30.4403369,63.1227858 30.4403369,57.2382161 C30.4403369,51.3536465 25.6693834,46.581512 19.7836328,46.581512 C13.8978822,46.581512 9.12692861,51.3536465 9.12692861,57.2382161" id="Fill-208" fill="#FEC1AF"></path>
                    <path d="M46.0713506,50.7655438 L46.0713506,50.7655438 C44.7345389,49.7700205 42.8249765,50.0487198 41.8294533,51.3855315 L28.5073922,70.2603213 C27.510688,71.5983139 27.7905682,73.5066954 29.12738,74.5022186 C30.4641917,75.4977418 32.3725731,75.2190425 33.3692773,73.8822308 L46.6913384,55.0074411 C47.6868616,53.6706293 47.4081623,51.761067 46.0713506,50.7655438" id="Fill-210" fill="#FEC1AF"></path>
                    <path d="M36.9271804,71.879257 L32.3640704,78.0059171 C30.8229579,80.073724 27.8706352,80.505944 25.8028284,78.9648315 C23.7350215,77.4249 23.3028015,74.4725773 24.8439139,72.4047704 L29.407024,66.2781103 C29.407024,66.2781103 34.6397208,64.7688829 36.9271804,71.879257" id="Fill-212" fill="#BAD4F5"></path>
                    <path d="M13.7774274,66.9543103 C17.1371707,68.9122907 19.7068724,67.42432 20.6197306,66.0060242 C22.9189995,62.4407993 23.3004396,64.8191905 24.6703174,63.1410902 C26.4665105,60.1899484 26.0638137,56.1677039 28.5543932,54.3101024 C32.1290655,51.6423836 31.1488944,46.3317455 21.8266401,43.9545352 C9.30170611,40.760122 4.36660342,56.5432394 12.184354,65.6659166 C12.7441144,66.3189704 13.0334421,66.5197284 13.7774274,66.9543103" id="Fill-214" fill="#2B1F9B"></path>
                    <path d="M23.5061575,63.5839386 C24.4048445,64.4826257 25.4003677,64.2157357 25.728666,62.9887504 C26.0581452,61.7605841 25.596402,60.0376086 24.696534,59.1389215 C23.7990279,58.2402345 22.8035046,58.5071244 22.4740254,59.7341098 C22.1457271,60.9610951 22.6074704,62.6852516 23.5061575,63.5839386" id="Fill-216" fill="#FEC1AF"></path>
                </g>
                <g id="Group-221" transform="translate(200.757946, 149.176144)">
                    <mask id="mask-11" fill="white">
                        <use xlink:href="#path-10"></use>
                    </mask>
                    <g id="Clip-220"></g>
                    <path d="M6.88835941,2.27328851 L0.628254279,23.4662421 C0.186586797,24.9577555 1.04748411,26.5390196 2.54017848,26.980687 L2.54017848,26.980687 C4.03169193,27.4199927 5.61413692,26.5602763 6.05344254,25.0687628 L6.05344254,25.0687628 L12.3147286,3.87699022 C12.7552152,2.38429584 11.8954988,0.803031785 10.4028044,0.361364303 L10.4028044,0.361364303 C10.1382763,0.283422983 9.87138631,0.246814181 9.60803912,0.246814181 L9.60803912,0.246814181 C8.38577751,0.246814181 7.25090465,1.04630318 6.88835941,2.27328851" id="Fill-219" mask="url(#mask-11)"></path>
                </g>
                <g id="Group-236" transform="translate(187.767726, 142.090570)">
                    <path d="M17.4090205,12.2613506 L19.4284093,5.42377115 C20.1109863,3.11505477 22.5566905,1.78532861 24.8642259,2.46672469 C27.1729423,3.14930171 28.5038494,5.59500587 27.8212724,7.90254132 L25.8007027,14.7401208 C25.8007027,14.7401208 21.7064215,17.750309 17.4090205,12.2613506" id="Fill-222" fill="#FFCE44"></path>
                    <path d="M29.3439623,33.3174345 C29.1845369,33.5677914 28.9566176,33.7673685 28.6991751,33.9149846 L13.8123829,42.4318452 C12.1909672,43.3624174 9.90468851,42.451921 8.73202592,40.4077328 C7.55936333,38.3647254 7.92663227,35.9320115 9.54804792,35.0014394 L26.6750626,25.1985469 C27.0872068,24.9623611 27.6044538,25.0190457 27.950466,25.3449822 C29.199889,26.5223685 31.7554196,29.5490897 29.3439623,33.3174345" id="Fill-224" fill="#4432DC"></path>
                    <path d="M39.203067,38.3663787 C39.0424606,38.6167357 38.8145413,38.8163127 38.5570988,38.9639289 L23.6703066,47.4807895 C22.0500719,48.4113616 19.7626122,47.5008653 18.5911306,45.4578579 C17.418468,43.4136697 17.784556,40.9809557 19.4059716,40.0503836 L36.5329863,30.2474912 C36.9451306,30.0113054 37.4635584,30.06799 37.8083897,30.3939264 C39.0578127,31.5713127 41.6133433,34.598034 39.203067,38.3663787" id="Fill-226" fill="#4432DC"></path>
                    <path d="M15.9154995,63.9921858 C16.0383161,65.2250758 13.0824506,65.9926797 10.6013186,67.4239658 C7.15418655,69.4150122 3.44134548,70.4979242 1.67113276,69.4764205 C1.22474156,69.2177971 1.01217433,68.8871369 0.996822249,68.5056968 L0.998003178,66.4815844 C0.934233007,65.3349022 2.63949462,63.589489 5.22572934,61.0670244 C8.07649218,58.2894792 9.89394205,56.5558753 14.1559152,59.0157506 C15.3734531,59.7184034 15.8623577,60.2450978 15.8682623,60.6938509 L15.9154995,63.9921858 Z" id="Fill-228" fill="#2B1F9B"></path>
                    <path d="M5.22608362,61.0674968 C1.78249438,64.4236973 -0.0975447433,66.4064773 1.67148704,67.4279809 C3.44051883,68.4494846 6.97503961,66.9119149 10.6016729,64.1709785 C13.7771912,61.7713306 18.4170616,61.4760983 14.1562694,59.016223 C9.89429633,56.5551667 8.07684645,58.2899516 5.22608362,61.0674968" id="Fill-230" fill="#2B1F9B"></path>
                    <path d="M7.9811912,58.6330115 C7.84420342,58.3696643 7.78397604,58.0732511 7.78397604,57.775657 L7.78397604,37.8604687 C7.78397604,35.9910579 9.71125232,34.4617548 12.0672059,34.4617548 C14.4231594,34.4617548 16.3516166,35.9910579 16.3516166,37.8604687 L16.3516166,60.3583489 C16.3516166,60.8330824 16.0445751,61.2546741 15.5899174,61.3916619 C13.947245,61.888833 10.050179,62.5997523 7.9811912,58.6330115" id="Fill-232" fill="#4432DC"></path>
                    <path d="M37.7212372,40.1049425 C37.6161345,40.1722555 37.4968606,40.2147689 37.3586919,40.2253973 C35.4656626,40.3718325 28.6564254,38.8885856 21.8448264,31.2113655 C21.2827042,30.5783875 20.9201589,29.721033 20.9201589,29.0030281 L20.9201589,7.21724817 C20.9201589,5.57575672 21.5082616,4.42316993 22.450643,3.89175183 L27.5723325,0.904001222 C28.5040856,0.348964548 29.7983839,0.415096577 31.2225844,1.23820416 L38.2089609,5.27107702 C41.0302005,6.89957824 43.3377359,10.8970232 43.3377359,14.1540257 L43.3377359,36.0685269 C43.3377359,36.5786883 43.1558729,36.9530428 42.8441076,37.1171919 L37.7212372,40.1049425 Z" id="Fill-234" fill="#FFCE44"></path>
                </g>
                <g id="Group-239" transform="translate(225.557457, 156.261719)">
                    <mask id="mask-13" fill="white">
                        <use xlink:href="#path-12"></use>
                    </mask>
                    <g id="Clip-238"></g>
                    <path d="M0.311765281,3.03853056 L0.311765281,25.1360758 C0.311765281,26.6913594 1.58598778,27.964401 3.14009046,27.964401 L3.14009046,27.964401 C4.69655501,27.964401 5.96959658,26.6913594 5.96959658,25.1360758 L5.96959658,25.1360758 L5.96959658,3.03853056 C5.96959658,1.48206601 4.69655501,0.210205379 3.14009046,0.210205379 L3.14009046,0.210205379 C1.58598778,0.210205379 0.311765281,1.48206601 0.311765281,3.03853056" id="Fill-237" mask="url(#mask-13)"></path>
                </g>
                <g id="Group-250" transform="translate(198.396088, 140.909641)">
                    <path d="M25.926944,21.8731687 L25.926944,14.7438998 C25.926944,12.3371663 27.8955528,10.3685575 30.3022863,10.3685575 C32.7090198,10.3685575 34.6776286,12.3371663 34.6776286,14.7438998 L34.6776286,21.8731687 C34.6776286,21.8731687 31.6036702,25.9202127 25.926944,21.8731687" id="Fill-240" fill="#FFCE44"></path>
                    <path d="M15.4946164,69.6857993 C15.6186139,70.9198702 12.6627484,71.6862932 10.1816164,73.1187601 C6.73448435,75.1086257 3.02046235,76.1915377 1.25143056,75.170034 C0.805039364,74.9114105 0.591291198,74.5807504 0.577120049,74.1993103 L0.577120049,72.1751978 C0.514530807,71.0296966 2.21861149,69.2831024 4.80602714,66.7618188 C7.65678998,63.9830927 9.47423985,62.2494888 13.736213,64.7093641 C14.9537509,65.4120169 15.4426555,65.9387112 15.4485601,66.3874643 L15.4946164,69.6857993 Z" id="Fill-242" fill="#2B1F9B"></path>
                    <path d="M4.80626333,66.7617007 C1.36267408,70.1179012 -0.517365037,72.1006812 1.25166675,73.1221848 C3.02069853,74.1436885 6.55403839,72.6049379 10.1818526,69.8651824 C13.3573709,67.4655345 17.9972413,67.1703022 13.7364491,64.709246 C9.47447604,62.2493707 7.65702616,63.9829746 4.80626333,66.7617007" id="Fill-244" fill="#2B1F9B"></path>
                    <path d="M7.5613709,64.3266249 C7.42438313,64.0632778 7.36297482,63.7668645 7.36297482,63.4692704 L7.36297482,43.5540822 C7.36297482,41.6858523 9.29143203,40.1553682 11.6473856,40.1553682 C14.0033391,40.1553682 15.9306154,41.6858523 15.9306154,43.5540822 L15.9306154,66.0519623 C15.9306154,66.5266958 15.6235738,66.9482875 15.1689161,67.0852753 C13.5274247,67.5824465 9.63035868,68.2933658 7.5613709,64.3266249" id="Fill-246" fill="#4432DC"></path>
                    <path d="M26.3190125,7.8046423 C26.3296408,8.34550782 25.9789049,8.88991614 25.2620809,9.30324132 C23.8520516,10.1169015 21.5657729,10.1169015 20.1545626,9.30324132 C19.4389196,8.88991614 19.0881836,8.34550782 19.098812,7.8046423 L19.098812,3.05730733 C19.0881836,2.51644181 19.4389196,1.97321443 20.1545626,1.55988924 C21.5657729,0.745048166 23.8520516,0.745048166 25.2620809,1.55988924 C25.9789049,1.97321443 26.3296408,2.51644181 26.3190125,3.05730733 L26.3190125,7.8046423 Z" id="Fill-248" fill="#894258"></path>
                </g>
                <g id="Group-253" transform="translate(210.205379, 125.557562)">
                    <mask id="mask-15" fill="white">
                        <use xlink:href="#path-14"></use>
                    </mask>
                    <g id="Clip-252"></g>
                    <path d="M0.954190709,10.8385672 C0.954190709,16.3310685 5.4062934,20.7831711 10.8999756,20.7831711 L10.8999756,20.7831711 C16.3912958,20.7831711 20.8445795,16.3310685 20.8445795,10.8385672 L20.8445795,10.8385672 C20.8445795,5.34606601 16.3912958,0.893963325 10.8999756,0.893963325 L10.8999756,0.893963325 C5.4062934,0.893963325 0.954190709,5.34606601 0.954190709,10.8385672" id="Fill-251" mask="url(#mask-15)"></path>
                </g>
                <g id="Group-260" transform="translate(209.024450, 123.195704)">
                    <path d="M17.4182318,20.9937308 C16.7758064,20.3477626 15.7743785,19.1573861 15.3693198,17.6800438 C15.3468822,17.6009215 15.3374347,17.5194374 15.3374347,17.4379533 L15.3374347,12.6776281 C15.3374347,11.730523 15.1095154,10.7869606 14.6088015,9.98274792 C14.1860289,9.30135183 13.5565936,8.69553521 12.6697159,8.74749609 C12.6697159,8.74749609 4.690178,12.2265132 1.70242738,5.72904132 C1.47450807,5.2330511 1.74139804,4.63550098 2.27281614,4.50914156 C2.84202396,4.37333472 3.59663765,3.88206822 4.43037359,2.52636161 C4.62995061,2.20278704 5.00666699,2.02800954 5.37511687,2.11776015 C6.15334914,2.3067088 7.58345428,2.35158411 8.95569389,0.797481418 C9.12102396,0.610894621 9.36311443,0.512877506 9.61347139,0.517601222 C11.1321462,0.54712445 16.3837379,0.801024205 19.2427672,2.86765012 C19.264024,2.8830022 19.2829188,2.89717335 19.3029946,2.91370636 C19.9147159,3.41796308 29.7920068,11.8344447 18.6015227,21.0433298 C18.2507868,21.3314765 17.7382636,21.3149435 17.4182318,20.9937308" id="Fill-254" fill="#2B1F9B"></path>
                    <path d="M15.4022677,18.7870467 C15.4022677,19.9726995 16.2348227,20.4533377 17.2622311,19.8605112 C18.2896394,19.2676848 19.1221944,17.8257704 19.1221944,16.6389367 C19.1221944,15.4532839 18.2896394,14.9726457 17.2622311,15.5654721 C16.2348227,16.1582985 15.4022677,17.6013939 15.4022677,18.7870467" id="Fill-256" fill="#AC5E74"></path>
                    <path d="M10.010854,17.662566 C8.83701051,16.9847127 7.88518166,15.3373166 7.88518166,13.9804291 C7.88518166,12.6259034 8.83701051,12.0767714 10.010854,12.7546247 C11.1846976,13.4312971 12.1365264,15.0798741 12.1365264,16.4355807 C12.1365264,17.7912873 11.1846976,18.3404193 10.010854,17.662566 L10.010854,17.662566 Z M5.63196895,12.6530648 C5.63196895,14.0075905 4.6801401,14.5555416 3.50747751,13.8776883 C2.33363399,13.2010159 1.38062421,11.5524389 1.38062421,10.1967323 C1.38062421,8.84102567 2.33363399,8.29189364 3.50747751,8.96974694 C4.6801401,9.64760024 5.63196895,11.2938154 5.63196895,12.649522 L5.63196895,12.6530648 Z M12.7730472,16.1769572 C12.5191474,14.5342848 11.3807318,12.7475391 10.010854,11.9563166 C8.56893961,11.1237616 7.38210587,11.6906076 7.21677579,13.2081015 L6.30509853,12.6814071 C6.15039682,10.9655171 4.95765844,9.00989853 3.50747751,8.1726198 C1.95219389,7.27393276 0.689780685,8.00256601 0.689780685,9.79757824 C0.689780685,11.5937714 1.95219389,13.7773093 3.50747751,14.6759963 C4.95765844,15.5132751 6.15039682,14.9358007 6.30509853,13.3982311 L7.20969022,13.9202017 C7.35140171,15.6431773 8.5524066,17.6176907 10.010854,18.4608741 C11.5578711,19.3536565 12.809656,18.6368325 12.8250081,16.863077 L17.9998394,13.8753264 L17.9998394,14.8543166 L18.6186462,14.4953142 L18.6186462,12.8006809 L12.7730472,16.1769572 Z" id="Fill-258" fill="#1F1F1F"></path>
                </g>
            </g>
        </g>
    </g>
</svg>